<svg version="1.2" baseProfile="tiny-ps" xmlns="http://www.w3.org/2000/svg" viewBox="0 0 818 302" width="818" height="302">
	<title>usds logo colored-ai</title>
	<style>
		tspan { white-space:pre }
		.txt0 { font-size: 24px;fill: #231f20;font-weight: 500;font-family: "Futura" } 
		.shp1 { fill: #ed1c24 } 
		.shp2 { fill: #006838 } 
		.shp3 { fill: #0061af } 
		.shp4 { fill: #ffffff;stroke: #ffffff;stroke-width: 1.5 } 
		.shp5 { fill: #fbc240 } 
		.shp6 { fill: #00aeef } 
		.shp7 { fill: #f7941e } 
		.shp8 { fill: #ef4136 } 
		.shp9 { fill: #3d64ff } 
		.shp10 { fill: #cc27d7 } 
		.shp11 { fill: #662d91 } 
		.shp12 { fill: #8dc63f } 
		.shp13 { fill: #00a79d } 
	</style>
	<g id="Bg">
	</g>
	<g id="SF">
		<text id="Quality You Can Afford
" style="transform: matrix(2,0,0,2,404.124,255.215)" >
			<tspan x="-162.27" y="0" class="txt0">QUALITY YOU CAN AFFORD
</tspan>
		</text>
		<g id="&lt;Group&gt;">
			<g id="&lt;Group&gt;">
				<path id="&lt;Compound Path&gt;" fill-rule="evenodd" class="shp1" d="M180.58 150.87C180.58 157.39 179.36 163.46 176.94 169.07C174.51 174.69 171.15 179.65 166.85 183.95C162.55 188.24 157.56 191.61 151.87 194.03C146.19 196.46 140.16 197.67 133.78 197.67L110.9 197.67C104.38 197.67 98.31 196.46 92.7 194.03C87.08 191.61 82.12 188.24 77.83 183.95C73.53 179.65 70.16 174.69 67.74 169.07C65.31 163.46 64.1 157.39 64.1 150.87L64.1 52.49L101.54 52.49L101.54 150.87C101.54 153.51 102.47 155.73 104.35 157.53C106.22 159.33 108.4 160.23 110.9 160.23L133.78 160.23C136.41 160.23 138.63 159.33 140.43 157.53C142.24 155.73 143.14 153.51 143.14 150.87L143.14 52.49L180.58 52.49L180.58 150.87ZM164.15 150.87L164.15 70.38L159.57 70.38L159.57 150.87C159.57 168.07 150.97 176.67 133.78 176.67L110.9 176.67C93.7 176.67 85.11 168.07 85.11 150.87L85.11 70.38L80.53 70.38L80.53 150.87C80.53 171.12 90.65 181.24 110.9 181.24L133.78 181.24C154.02 181.24 164.15 171.12 164.15 150.87Z" />
				<path id="&lt;Compound Path&gt;" fill-rule="evenodd" class="shp2" d="M747.05 140.87C747.61 143.65 747.88 146.84 747.88 150.46C747.88 156.99 746.64 163.07 744.14 168.7C741.65 174.33 738.28 179.3 734.05 183.61C729.82 187.91 724.83 191.29 719.08 193.72C713.32 196.15 707.25 197.36 700.88 197.36L619.55 196.07L631.5 158.86L701.08 159.92C703.72 159.92 705.94 159.02 707.74 157.22C709.54 155.42 710.45 153.2 710.45 150.56C710.45 147.93 709.54 145.71 707.74 143.91C705.94 142.11 703.72 141.2 701.08 141.2L674.25 141.2C668.15 141.2 662.4 140.02 656.99 137.66C651.58 135.31 646.87 132.12 642.84 128.1C638.82 124.08 635.63 119.36 633.28 113.95C630.92 108.55 629.74 102.79 629.74 96.69C629.74 90.45 630.92 84.63 633.28 79.22C635.63 73.81 638.82 69.1 642.84 65.07C646.87 61.05 651.58 57.9 656.99 55.61C662.4 53.32 668.15 52.18 674.25 52.18L743.72 52.18L732.08 89.62L674.25 89.62C672.31 89.62 670.65 90.3 669.26 91.67C667.87 93.03 667.18 94.68 667.18 96.59C667.18 98.5 667.87 100.14 669.26 101.51C670.65 102.87 672.31 103.56 674.25 103.56L701.08 103.56C708.57 103.56 715.5 105.15 721.88 108.35C728.26 111.55 733.6 115.92 737.9 121.48C740.12 124.12 741.92 126.97 743.31 130.03C743.58 130.31 743.76 130.66 743.83 131.07C743.9 131.49 744.07 131.84 744.35 132.11C744.35 132.25 744.38 132.4 744.45 132.53C744.52 132.67 744.56 132.81 744.56 132.95L745.8 136.07C746.08 136.91 746.22 137.53 746.22 137.95C746.36 138.23 746.46 138.47 746.53 138.68C746.6 138.89 746.64 139.13 746.64 139.41C746.77 139.69 746.84 139.93 746.84 140.14C746.84 140.35 746.91 140.59 747.05 140.87ZM731.45 152.02C731.59 151.47 731.66 150.63 731.66 149.52C731.66 148.83 731.59 148.34 731.45 148.07C731.45 147.37 731.38 146.82 731.25 146.4L731.25 146.19C731.25 145.64 731.17 145.29 731.04 145.15C731.04 144.88 731 144.63 730.93 144.43C730.86 144.22 730.83 143.98 730.83 143.7C730.83 143.56 730.79 143.42 730.72 143.28C730.65 143.15 730.62 143 730.62 142.87L730.41 142.45C730.41 142.03 730.34 141.69 730.2 141.41C730.07 141.13 729.96 140.89 729.89 140.68C729.82 140.47 729.72 140.23 729.58 139.95C729.58 139.68 729.54 139.5 729.48 139.43C729.41 139.37 729.37 139.26 729.37 139.12L729.16 138.91C729.16 138.64 729.13 138.47 729.06 138.4C728.99 138.32 728.96 138.22 728.96 138.08C728.82 137.95 728.75 137.81 728.75 137.66C728.75 137.53 728.68 137.39 728.54 137.25C727.99 136.14 727.5 135.31 727.08 134.75L726.46 133.5C726.18 133.23 725.97 132.98 725.84 132.78C725.7 132.57 725.56 132.33 725.42 132.05C725.14 131.91 724.97 131.77 724.9 131.63C724.83 131.5 724.73 131.36 724.59 131.22C723.76 130.11 723.13 129.35 722.72 128.93C719.8 126.02 716.69 123.87 713.36 122.48C712.94 122.48 712.66 122.41 712.53 122.27C708.78 120.75 704.97 119.98 701.08 119.98L674.25 119.98C670.23 119.98 666.52 119.09 663.12 117.28C659.73 115.48 656.92 112.98 654.7 109.79L654.7 109.59C654.01 108.48 653.31 107.16 652.62 105.63C652.07 104.66 651.72 103.76 651.58 102.93C651.58 102.65 651.54 102.48 651.48 102.41C651.41 102.34 651.37 102.24 651.37 102.1L651.37 101.89C650.96 100.23 650.75 98.49 650.75 96.69C650.75 93.36 651.37 90.28 652.62 87.43C653.87 84.59 655.53 82.13 657.61 80.05C659.69 77.97 662.15 76.31 665 75.06C667.84 73.81 670.92 73.19 674.25 73.19L727.4 73.21L729.01 68.61L674.39 68.61C670.52 68.61 666.85 69.34 663.39 70.79C659.94 72.25 656.93 74.26 654.37 76.82C651.81 79.39 649.8 82.37 648.35 85.77C646.9 89.17 646.17 92.81 646.17 96.69C646.17 97.8 646.24 98.63 646.38 99.19C646.52 100.43 646.69 101.65 646.9 102.82C647.11 104 647.49 105.15 648.04 106.26C648.04 106.67 648.18 107.02 648.45 107.3C648.45 107.58 648.52 107.85 648.66 108.13C648.8 108.41 648.94 108.69 649.08 108.96C649.63 110.21 650.25 111.25 650.95 112.08L650.95 112.29L651.15 112.29L651.78 113.54C652.05 113.68 652.33 114.02 652.6 114.58L654.47 116.45C656.82 118.81 659.31 120.61 661.94 121.86C662.22 122 662.39 122.07 662.46 122.07C662.53 122.07 662.7 122.14 662.98 122.27C666.3 123.94 670.1 124.77 674.39 124.77C674.8 124.77 702.12 124.77 702.82 124.77C703.51 124.77 704.06 124.84 704.48 124.98C708.9 125.67 712.85 127.27 716.3 129.76C719.76 132.26 722.46 135.45 724.4 139.33C726.05 142.66 726.89 146.4 726.89 150.56L726.89 152.23C726.89 152.5 726.85 152.75 726.78 152.95C726.71 153.16 726.68 153.41 726.68 153.68L726.68 153.89C726.27 157.08 725.33 160.03 723.88 162.73C722.42 165.43 720.56 167.79 718.27 169.8C715.99 171.81 713.4 173.41 710.49 174.59C707.59 175.77 704.48 176.35 701.16 176.35L641.5 176.3L640.1 180.93L701.16 180.93C705.03 180.93 708.7 180.27 712.15 178.95C715.61 177.64 718.69 175.77 721.39 173.34C724.09 170.91 726.3 168.11 728.03 164.91C729.76 161.73 730.83 158.26 731.25 154.51L731.25 154.31C731.38 154.03 731.45 153.61 731.45 153.06L731.45 152.02Z" />
				<path id="&lt;Compound Path&gt;" fill-rule="evenodd" class="shp1" d="M310.04 140.87C310.6 143.65 310.88 146.84 310.88 150.46C310.88 156.99 309.63 163.07 307.13 168.7C304.64 174.33 301.27 179.3 297.04 183.61C292.81 187.91 287.82 191.29 282.07 193.72C276.31 196.15 270.25 197.36 263.87 197.36L182.54 196.07L194.49 158.86L264.08 159.92C266.71 159.92 268.93 159.02 270.73 157.22C272.53 155.42 273.44 153.2 273.44 150.56C273.44 147.93 272.53 145.71 270.73 143.91C268.93 142.11 266.71 141.2 264.08 141.2L237.24 141.2C231.14 141.2 225.39 140.02 219.98 137.66C214.57 135.31 209.86 132.12 205.84 128.1C201.81 124.08 198.63 119.36 196.27 113.95C193.91 108.55 192.73 102.79 192.73 96.69C192.73 90.45 193.91 84.63 196.27 79.22C198.63 73.81 201.81 69.1 205.84 65.07C209.86 61.05 214.57 57.9 219.98 55.61C225.39 53.32 231.14 52.18 237.24 52.18L306.72 52.18L295.07 89.62L237.24 89.62C235.3 89.62 233.64 90.3 232.25 91.67C230.86 93.03 230.17 94.68 230.17 96.59C230.17 98.5 230.86 100.14 232.25 101.51C233.64 102.87 235.3 103.56 237.24 103.56L264.08 103.56C271.56 103.56 278.5 105.15 284.88 108.35C291.25 111.55 296.59 115.92 300.89 121.48C303.11 124.12 304.91 126.97 306.3 130.03C306.58 130.31 306.75 130.66 306.82 131.07C306.89 131.49 307.06 131.84 307.34 132.11C307.34 132.25 307.37 132.4 307.44 132.53C307.51 132.67 307.55 132.81 307.55 132.95L308.8 136.07C309.07 136.91 309.21 137.53 309.21 137.95C309.35 138.23 309.45 138.47 309.52 138.68C309.59 138.89 309.63 139.13 309.63 139.41C309.76 139.69 309.84 139.93 309.84 140.14C309.84 140.35 309.9 140.59 310.04 140.87ZM294.44 152.02C294.58 151.47 294.65 150.63 294.65 149.52C294.65 148.83 294.58 148.34 294.44 148.07C294.44 147.37 294.37 146.82 294.24 146.4L294.24 146.19C294.24 145.64 294.17 145.29 294.03 145.15C294.03 144.88 293.99 144.63 293.92 144.43C293.85 144.22 293.82 143.98 293.82 143.7C293.82 143.56 293.78 143.42 293.72 143.28C293.64 143.15 293.61 143 293.61 142.87L293.4 142.45C293.4 142.03 293.33 141.69 293.2 141.41C293.06 141.13 292.95 140.89 292.88 140.68C292.81 140.47 292.71 140.23 292.57 139.95C292.57 139.68 292.54 139.5 292.47 139.43C292.4 139.37 292.36 139.26 292.36 139.12L292.16 138.91C292.16 138.64 292.12 138.47 292.05 138.4C291.98 138.32 291.95 138.22 291.95 138.08C291.81 137.95 291.74 137.81 291.74 137.66C291.74 137.53 291.67 137.39 291.53 137.25C290.98 136.14 290.49 135.31 290.08 134.75L289.45 133.5C289.17 133.23 288.96 132.98 288.83 132.78C288.69 132.57 288.55 132.33 288.41 132.05C288.13 131.91 287.96 131.77 287.89 131.63C287.82 131.5 287.72 131.36 287.58 131.22C286.75 130.11 286.12 129.35 285.71 128.93C282.8 126.02 279.68 123.87 276.35 122.48C275.93 122.48 275.65 122.41 275.52 122.27C271.77 120.75 267.96 119.98 264.08 119.98L237.24 119.98C233.22 119.98 229.51 119.09 226.12 117.28C222.72 115.48 219.91 112.98 217.69 109.79L217.69 109.59C217 108.48 216.3 107.16 215.61 105.63C215.06 104.66 214.71 103.76 214.57 102.93C214.57 102.65 214.54 102.48 214.47 102.41C214.4 102.34 214.36 102.24 214.36 102.1L214.36 101.89C213.95 100.23 213.74 98.49 213.74 96.69C213.74 93.36 214.36 90.28 215.61 87.43C216.86 84.59 218.52 82.13 220.6 80.05C222.68 77.97 225.14 76.31 227.99 75.06C230.83 73.81 233.92 73.19 237.24 73.19L290.39 73.21L292 68.61L237.38 68.61C233.51 68.61 229.84 69.34 226.39 70.79C222.93 72.25 219.92 74.26 217.36 76.82C214.8 79.39 212.79 82.37 211.34 85.77C209.89 89.17 209.16 92.81 209.16 96.69C209.16 97.8 209.23 98.63 209.37 99.19C209.51 100.43 209.68 101.65 209.89 102.82C210.1 104 210.48 105.15 211.03 106.26C211.03 106.67 211.17 107.02 211.45 107.3C211.45 107.58 211.51 107.85 211.65 108.13C211.79 108.41 211.93 108.69 212.07 108.96C212.62 110.21 213.24 111.25 213.94 112.08L213.94 112.29L214.14 112.29L214.77 113.54C215.04 113.68 215.32 114.02 215.6 114.58L217.46 116.45C219.81 118.81 222.3 120.61 224.93 121.86C225.21 122 225.38 122.07 225.45 122.07C225.52 122.07 225.69 122.14 225.97 122.27C229.29 123.94 233.09 124.77 237.38 124.77C237.8 124.77 265.12 124.77 265.81 124.77C266.5 124.77 267.05 124.84 267.47 124.98C271.9 125.67 275.84 127.27 279.3 129.76C282.75 132.26 285.45 135.45 287.39 139.33C289.05 142.66 289.88 146.4 289.88 150.56L289.88 152.23C289.88 152.5 289.84 152.75 289.77 152.95C289.71 153.16 289.67 153.41 289.67 153.68L289.67 153.89C289.26 157.08 288.32 160.03 286.87 162.73C285.42 165.43 283.55 167.79 281.27 169.8C278.98 171.81 276.39 173.41 273.49 174.59C270.58 175.77 267.47 176.35 264.15 176.35L204.49 176.3L203.09 180.93L264.15 180.93C268.02 180.93 271.69 180.27 275.15 178.95C278.6 177.64 281.68 175.77 284.38 173.34C287.08 170.91 289.29 168.11 291.02 164.91C292.75 161.73 293.82 158.26 294.24 154.51L294.24 154.31C294.37 154.03 294.44 153.61 294.44 153.06L294.44 152.02Z" />
				<path id="&lt;Compound Path&gt;" fill-rule="evenodd" class="shp3" d="M618.7 98.87L618.7 150.46C618.7 156.98 617.48 163.08 615.06 168.76C612.63 174.45 609.27 179.44 604.97 183.74C600.67 188.04 595.68 191.4 589.99 193.83C584.31 196.25 578.21 197.47 571.69 197.47L506.17 197.47L506.17 52.07L571.69 52.07C578.21 52.07 584.31 53.29 589.99 55.71C595.68 58.14 600.67 61.5 604.97 65.8C609.27 70.1 612.63 75.09 615.06 80.78C617.48 86.47 618.7 92.5 618.7 98.87ZM602.27 150.46L602.27 98.87C602.27 78.63 592.08 68.51 571.69 68.51L522.6 68.51L522.6 181.03L571.69 181.03C592.08 181.03 602.27 170.84 602.27 150.46ZM597.69 98.72L597.69 150.4C597.69 167.64 589.07 176.25 571.82 176.25L527.18 176.25L527.18 73.08L571.82 73.08C589.07 73.08 597.69 81.63 597.69 98.72ZM581.26 150.46L581.26 98.87C581.26 96.38 580.32 94.19 578.45 92.32C576.58 90.45 574.32 89.51 571.69 89.51L543.61 89.51L543.61 159.82L571.69 159.82C574.32 159.82 576.58 158.92 578.45 157.11C580.32 155.31 581.26 153.09 581.26 150.46Z" />
				<g id="&lt;Group&gt;">
					<path id="&lt;Path&gt;" class="shp4" d="M684.69 97.87L700.3 47.44L716.69 51.56L701.32 101.25" />
				</g>
				<g id="&lt;Group&gt;">
					<path id="&lt;Path&gt;" class="shp4" d="M668.69 149.62L684.29 99.19L700.69 103.31L685.32 153" />
				</g>
				<g id="&lt;Group&gt;">
					<path id="&lt;Path&gt;" class="shp4" d="M652.69 204.56L668.29 154.13L684.69 158.25L669.32 207.94" />
				</g>
			</g>
			<g id="&lt;Group&gt;">
				<path id="&lt;Path&gt;" class="shp5" d="M407.77 73.83C402.3 90.25 402.3 105.34 407.77 119.08C415.98 139.71 433 171.74 425.99 189.76C441.08 174.28 445.68 157.53 439.81 139.51C431 112.48 415.58 107.67 407.77 73.83Z" />
				<path id="&lt;Path&gt;" class="shp6" d="M455.42 87.75C455.06 105.3 446.05 113.3 438.52 120.36C441.27 125.19 443.88 130.67 446.09 137.46C447.04 140.37 447.67 143.23 448.05 146.02C453.62 140.16 469.42 115.35 455.42 87.75Z" />
				<path id="&lt;Path&gt;" class="shp7" d="M417.18 194.19C417.7 194.19 418.58 191.92 419.83 187.37C423.33 174.65 414.28 151.12 406.73 133.63C406.33 132.7 405.94 131.79 405.55 130.88C405.02 129.74 404.53 128.6 404.09 127.47C403.22 125.42 402.39 123.43 401.63 121.53C398.63 113.98 397.58 106.04 397.52 98.77C375.21 138.18 399.2 169.99 408.37 179.55C413.59 184.99 417.36 191.44 417.18 194.19Z" />
				<path id="&lt;Path&gt;" class="shp8" d="M382.35 120.74C382.35 125.13 378.79 128.7 374.39 128.7C369.99 128.7 366.43 125.13 366.43 120.74C366.43 116.34 369.99 112.77 374.39 112.77C378.79 112.77 382.35 116.34 382.35 120.74Z" />
				<path id="&lt;Path&gt;" class="shp9" d="M443.21 98.86C443.21 103.51 439.44 107.27 434.8 107.27C430.15 107.27 426.39 103.51 426.39 98.86C426.39 94.22 430.15 90.45 434.8 90.45C439.44 90.45 443.21 94.22 443.21 98.86Z" />
				<path id="&lt;Path&gt;" class="shp10" d="M383.63 147.83C368.86 140.02 359.96 130.99 356.93 120.74C357.09 125.6 357.63 130.12 358.49 134.31C361.54 146.44 370.3 163.73 395.06 173.37C390.79 166.98 386.17 158.27 383.63 147.83Z" />
				<g id="&lt;Group&gt;">
					<path id="&lt;Path&gt;" class="shp11" d="M410.56 194.19C410.28 192.69 407.78 188.48 403.61 184.12C402.78 183.26 401.54 181.91 400.08 180.14C367.11 177.46 341.18 149.85 341.18 116.18C341.18 91.07 355.61 69.33 376.62 58.79C351.86 70.35 334.69 95.47 334.69 124.6C334.69 164.69 367.19 197.19 407.28 197.19C408.32 197.19 409.35 197.17 410.37 197.12C410.87 197.17 410.94 196.19 410.56 194.19Z" />
					<path id="&lt;Path&gt;" class="shp12" d="M409.53 52.05L409.55 52.15C443.03 54.31 469.53 82.15 469.53 116.18C469.53 135.8 460.72 153.35 446.85 165.13C443.41 178.79 435.4 189.06 432.12 192.83C459.98 182.69 479.88 155.97 479.88 124.6C479.88 85.26 448.58 53.23 409.53 52.05Z" />
				</g>
			</g>
		</g>
	</g>
	<g id="frame">
		<g id="&lt;Group&gt;">
			<path id="&lt;Compound Path&gt;" fill-rule="evenodd" class="shp13" d="M750.85 276.3C745.7 276.31 738.29 276.33 728.62 276.36C714.13 276.4 692.87 276.42 665.8 276.75C659.04 276.82 651.91 276.89 644.44 276.96C636.96 277.09 629.14 277.23 620.98 277.37C604.68 277.66 587.04 277.97 568.19 278.3C530.5 278.9 487.97 279.88 441.58 280.46C395.19 281.11 344.94 281.17 291.78 280.96C278.49 280.86 265.02 280.76 251.39 280.66C237.75 280.48 223.95 280.29 209.99 280.11C182.09 279.72 153.58 279.33 124.58 278.93C110.09 278.72 95.47 278.52 80.74 278.31C77.06 278.26 73.38 278.21 69.68 278.15L68.3 278.13L67.48 278.11L66.79 278.07L64.02 277.9C62.23 277.88 60.17 277.41 58.24 277.13C50.56 275.72 43.3 272.53 37.04 267.91C24.48 258.78 16.01 243.96 15.22 228.26C14.94 224.28 15.12 220.62 15.08 216.81C15.09 213.03 15.1 209.24 15.12 205.46C15.12 197.88 15.11 190.28 15.11 182.67C15.08 167.45 15.04 152.17 15 136.84C14.9 121.51 14.81 106.14 14.71 90.73L14.58 79.18L14.57 77.61L14.63 76.17L14.74 73.28C14.85 71.33 15.26 69.21 15.52 67.18C17.08 59.22 20.52 51.65 25.42 45.15C35.1 32.01 51.25 23.9 67.74 23.71C98.66 23.31 129.59 22.9 160.4 22.5C191.2 22.24 221.89 21.97 252.33 21.71C313.22 21.39 373.14 21.08 431.13 20.78C460.12 20.59 488.63 20.61 516.54 20.59C530.49 20.59 544.3 20.58 557.93 20.58C571.57 20.63 585.04 20.69 598.33 20.74C651.48 20.93 701.74 21.17 748.13 21.94L750.3 21.97L750.84 21.98L751.64 22.02L752.72 22.09L754.87 22.23C755.6 22.29 756.27 22.3 757.13 22.46C758.75 22.72 760.37 22.99 761.98 23.26C763.49 23.67 765 24.07 766.5 24.48C772.44 26.35 777.94 29.22 782.8 32.79C787.69 36.33 791.85 40.7 795.2 45.5C798.54 50.31 801.18 55.52 802.82 60.98C804.43 66.45 805.21 72.04 805.19 77.55C805.09 82.7 805 87.79 804.9 92.8C804.72 102.81 804.54 112.53 804.36 121.96C804.03 140.8 803.71 158.44 803.42 174.75C803.28 182.9 803.14 190.73 803.01 198.2C802.93 205.68 802.85 212.8 802.78 219.57C802.76 221.26 802.75 222.93 802.73 224.58C802.66 226.33 802.54 227.87 802.44 229.49C802.07 232.73 801.5 235.92 800.61 238.84C798.86 244.72 796.2 249.88 793.18 254.27C790.14 258.68 786.54 262.12 783.08 265.01C781.26 266.34 779.58 267.71 777.78 268.7C776.9 269.22 776.05 269.75 775.21 270.23C774.33 270.65 773.48 271.06 772.65 271.45C765.97 274.56 760.33 275.5 756.59 275.98C754.7 276.17 753.26 276.16 752.3 276.23C751.66 276.26 751.18 276.28 750.85 276.3ZM750.85 275.1C751.17 275.08 751.64 275.05 752.27 275.02C753.21 274.95 754.61 274.94 756.45 274.74C760.1 274.24 765.58 273.28 772.06 270.21C772.86 269.81 773.69 269.41 774.54 269C775.36 268.53 776.17 268 777.03 267.48C778.77 266.51 780.39 265.17 782.15 263.86C785.49 261.02 788.96 257.66 791.87 253.36C794.78 249.09 797.27 244.04 798.81 238.33C799.62 235.46 800.08 232.5 800.39 229.39C800.45 227.81 800.51 226.2 800.57 224.58C800.55 222.93 800.53 221.26 800.51 219.57C800.44 212.8 800.37 205.68 800.29 198.2C800.15 190.73 800.02 182.9 799.87 174.75C799.58 158.44 799.27 140.8 798.93 121.96C798.76 112.53 798.58 102.81 798.39 92.8C798.29 87.8 798.19 82.72 798.08 77.58C797.91 72.79 797.03 68 795.48 63.37C793.9 58.75 791.46 54.39 788.47 50.42C785.47 46.46 781.81 42.9 777.59 40.1C773.39 37.26 768.72 35.1 763.78 33.7C762.53 33.4 761.29 33.1 760.03 32.79L756.41 32.29C755.85 32.17 755.08 32.17 754.37 32.14L752.21 32.06L751.13 32.02C751.09 32.02 750.89 32.02 750.79 32.01L750.3 32.02L748.13 32.05C701.74 32.82 651.48 33.06 598.33 33.25C585.04 33.3 571.57 33.36 557.93 33.41C544.3 33.41 530.49 33.41 516.54 33.4C488.63 33.39 460.12 33.41 431.13 33.21C373.14 32.91 313.22 32.6 252.33 32.28C221.89 32.02 191.2 31.75 160.4 31.49C129.59 31.09 98.66 30.68 67.74 30.28C53.28 30.13 38.75 36.91 29.78 48.53C25.26 54.26 21.99 61.01 20.41 68.17C18.87 75.05 19.4 83.11 19.18 90.73C19.08 106.14 18.98 121.51 18.88 136.84C18.85 152.17 18.81 167.45 18.77 182.67C18.77 190.28 18.77 197.88 18.77 205.46C18.78 209.24 18.79 213.03 18.8 216.81C18.86 220.56 18.71 224.46 19 228.01C19.49 235.24 21.52 242.38 25.13 248.64C28.73 254.89 33.71 260.3 39.54 264.42L40.62 265.22L41.77 265.9L44.06 267.27C45.61 268.15 47.27 268.82 48.86 269.61C50.54 270.19 52.19 270.86 53.88 271.35C55.6 271.73 57.32 272.32 59.03 272.53C60.77 272.73 62.34 273.14 64.26 273.13L67.04 273.24L67.73 273.27L68.3 273.26L69.68 273.24C73.38 273.19 77.06 273.14 80.74 273.09C95.47 272.88 110.09 272.67 124.58 272.47C153.58 272.07 182.09 271.67 209.99 271.29C223.95 271.1 237.75 270.92 251.39 270.74C265.02 270.64 278.49 270.54 291.78 270.44C344.94 270.23 395.19 270.29 441.58 270.94C487.97 271.52 530.5 272.49 568.19 273.1C587.04 273.43 604.68 273.74 620.98 274.02C629.14 274.16 636.96 274.3 644.44 274.43C651.91 274.51 659.04 274.58 665.8 274.65C692.87 274.98 714.13 274.99 728.62 275.03C738.29 275.06 745.7 275.08 750.85 275.1ZM750.79 32.01L750.84 32.01C750.7 32.01 750.72 32.01 750.79 32.01Z" />
		</g>
	</g>
</svg>